<svg width="33" height="32" viewBox="0 0 33 32" fill="none" xmlns="http://www.w3.org/2000/svg">
<path d="M25.6113 16.0601V6.72673C25.6113 5.25339 24.418 4.06006 22.9447 4.06006H6.94468C5.47135 4.06006 4.27802 5.25339 4.27802 6.72673V22.7267C4.27802 24.2001 5.47135 25.3934 6.94468 25.3934H16.278" stroke="white" stroke-width="1.5" stroke-linecap="round" stroke-linejoin="round"/>
<path fill-rule="evenodd" clip-rule="evenodd" d="M27.786 25.6828L25.9007 27.5681C25.3793 28.0895 24.5353 28.0895 24.0153 27.5681L13.974 17.5268C13.7233 17.2775 13.5833 16.9375 13.5833 16.5841V13.3655H16.802C17.1553 13.3655 17.4953 13.5055 17.7447 13.7561L27.786 23.7975C28.3073 24.3175 28.3073 25.1615 27.786 25.6828V25.6828Z" stroke="white" stroke-width="1.5" stroke-linecap="round" stroke-linejoin="round"/>
<path d="M25.3967 21.4133L21.6234 25.1733" stroke="white" stroke-width="1.5" stroke-linecap="round" stroke-linejoin="round"/>
</svg>
