<svg width="32" height="33" viewBox="0 0 32 33" fill="none" xmlns="http://www.w3.org/2000/svg">
<path d="M15.9987 8.99727C15.796 8.99727 15.632 9.16127 15.6347 9.36393C15.6347 9.5666 15.7987 9.7306 16.0013 9.7306C16.204 9.7306 16.368 9.5666 16.368 9.36393C16.3653 9.16127 16.2027 8.99727 15.9987 8.99727" stroke="white" stroke-width="1.5" stroke-linecap="round" stroke-linejoin="round"/>
<path d="M9.232 16.4959C9.232 16.2933 9.068 16.1293 8.86667 16.1319C8.664 16.1319 8.5 16.2959 8.5 16.4986C8.5 16.7013 8.664 16.8653 8.86667 16.8653C9.06933 16.8653 9.232 16.6999 9.232 16.4959" stroke="white" stroke-width="1.5" stroke-linecap="round" stroke-linejoin="round"/>
<path d="M21.3027 11.1933C21.16 11.0506 20.928 11.0506 20.7867 11.1946C20.644 11.3373 20.644 11.5693 20.7867 11.7119C20.9293 11.8546 21.1613 11.8546 21.304 11.7119C21.4467 11.5679 21.4467 11.3373 21.3027 11.1933" stroke="white" stroke-width="1.5" stroke-linecap="round" stroke-linejoin="round"/>
<path d="M11.2133 21.2826C11.0707 21.1399 10.8387 21.1399 10.6973 21.2839C10.5547 21.4266 10.5547 21.6586 10.6973 21.8013C10.84 21.9439 11.072 21.9439 11.2147 21.8013C11.3573 21.6586 11.3573 21.4266 11.2133 21.2826" stroke="white" stroke-width="1.5" stroke-linecap="round" stroke-linejoin="round"/>
<path d="M11.2147 11.7107C11.3573 11.568 11.3573 11.336 11.2133 11.1947C11.0707 11.052 10.8387 11.052 10.696 11.1947C10.5533 11.3374 10.5533 11.5694 10.696 11.712C10.8387 11.8547 11.0707 11.8547 11.2147 11.7107" stroke="white" stroke-width="1.5" stroke-linecap="round" stroke-linejoin="round"/>
<path fill-rule="evenodd" clip-rule="evenodd" d="M16 28.4973C9.26 28.4973 3.81733 22.94 4.00533 16.1573C4.17866 9.89599 9.39866 4.67599 15.66 4.50265C22.4427 4.31465 28 9.75732 28 16.4973V17.8307C28 19.304 26.8067 20.4973 25.3333 20.4973H22.5827C20.8107 20.4973 19.532 22.1933 20.0187 23.896L20.3613 25.0973C20.8493 26.8013 19.5693 28.4973 17.7987 28.4973H16Z" stroke="white" stroke-width="1.5" stroke-linecap="round" stroke-linejoin="round"/>
</svg>
