<svg width="33" height="32" viewBox="0 0 33 32" fill="none" xmlns="http://www.w3.org/2000/svg">
<path fill-rule="evenodd" clip-rule="evenodd" d="M27.7113 5.72266V5.72266C26.6673 4.67866 24.994 4.624 23.8833 5.59466L13.1673 14.9707C12.006 15.9867 11.9473 17.772 13.038 18.8627L14.57 20.3947C15.6607 21.4853 17.4473 21.4253 18.462 20.2653L27.838 9.54933C28.81 8.44 28.754 6.76666 27.7113 5.72266V5.72266Z" stroke="white" stroke-width="1.5" stroke-linecap="round" stroke-linejoin="round"/>
<path d="M15.2433 13.1599L20.2833 18.1999" stroke="white" stroke-width="1.5" stroke-linecap="round" stroke-linejoin="round"/>
<path fill-rule="evenodd" clip-rule="evenodd" d="M5.54865 27.0972H10.486C14.466 27.0972 16.4593 22.2852 13.6447 19.4706V19.4706C11.5753 17.4012 8.06065 18.1626 7.03399 20.9026L5.00465 26.3132C4.86332 26.6932 5.14332 27.0972 5.54865 27.0972Z" stroke="white" stroke-width="1.5" stroke-linecap="round" stroke-linejoin="round"/>
</svg>
