<svg width="32" height="32" viewBox="0 0 32 32" fill="none" xmlns="http://www.w3.org/2000/svg">
<path d="M12.75 4H11.25C10.8358 4 10.5 4.76751 10.5 5.71429V26.2857C10.5 27.2325 10.8358 28 11.25 28H12.75C13.1642 28 13.5 27.2325 13.5 26.2857V5.71429C13.5 4.76751 13.1642 4 12.75 4Z" fill="#8B8B8B"/>
<path d="M20.75 4H19.25C18.8358 4 18.5 4.76751 18.5 5.71429V26.2857C18.5 27.2325 18.8358 28 19.25 28H20.75C21.1642 28 21.5 27.2325 21.5 26.2857V5.71429C21.5 4.76751 21.1642 4 20.75 4Z" fill="#8B8B8B"/>
</svg>
