<svg width="24" height="24" viewBox="0 0 24 24" fill="none" xmlns="http://www.w3.org/2000/svg">
<path fill-rule="evenodd" clip-rule="evenodd" d="M5.83898 14.193L3.16798 16.088C2.79298 16.354 2.63598 16.834 2.78098 17.27L3.78498 20.285C3.92598 20.712 4.32498 21 4.77498 21H8.11098C8.56098 21 8.95998 20.712 9.10198 20.285L10.106 17.27C10.251 16.834 10.094 16.354 9.71898 16.088L7.04798 14.193C6.68498 13.936 6.20098 13.936 5.83898 14.193Z" stroke="white" stroke-width="1.5"/>
<path fill-rule="evenodd" clip-rule="evenodd" d="M4.19299 3.5H8.69299C9.24499 3.5 9.69299 3.948 9.69299 4.5V9C9.69299 9.552 9.24499 10 8.69299 10H4.19299C3.64099 10 3.19299 9.552 3.19299 9V4.5C3.19299 3.948 3.64099 3.5 4.19299 3.5Z" stroke="white" stroke-width="1.5" stroke-linecap="round" stroke-linejoin="round"/>
<path fill-rule="evenodd" clip-rule="evenodd" d="M17.633 14V14C15.7 14 14.133 15.567 14.133 17.5V17.5C14.133 19.433 15.7 21 17.633 21V21C19.566 21 21.133 19.433 21.133 17.5V17.5C21.133 15.567 19.566 14 17.633 14Z" stroke="white" stroke-width="1.5" stroke-linecap="round" stroke-linejoin="round"/>
<path fill-rule="evenodd" clip-rule="evenodd" d="M16.605 4.07L14.058 8.146C13.553 8.953 14.134 10 15.085 10H20.18C21.132 10 21.712 8.953 21.207 8.146L18.661 4.07C18.186 3.31 17.08 3.31 16.605 4.07Z" stroke="white" stroke-width="1.5" stroke-linecap="round" stroke-linejoin="round"/>
</svg>
